Coordinates
version=1
nRows=54
nColumns=12
inDegrees=yes

Units are S.I. units (second, meters, Newtons, ...)
Angles are in degrees

endheader
time	SC_y	SC_z	SC_x	AC_y	AC_z	AC_x	GH_y	GH_z	GH_yy	EL_x	PS_y
       0.0              -58.56          13.11          67.83          45.07          5.955          5.745          74.67          37.36         0.5345          121.1          78.71
   0.04823              -58.55          13.11          67.84          45.07          5.953          5.742          74.67          37.35          0.544          121.1          78.72
   0.09646              -58.55          13.11          67.84          45.07           5.95           5.74          74.68          37.35         0.5541          121.1          78.72
    0.1447              -58.55          13.11          67.84          45.07          5.948          5.737          74.69          37.34         0.5649          121.1          78.72
    0.1929              -58.55          13.11          67.84          45.07          5.946          5.734           74.7          37.33         0.5763          121.1          78.73
    0.2412              -58.54          13.11          67.85          45.07          5.943           5.73          74.71          37.33         0.5885          121.1          78.73
    0.2894              -58.54          13.12          67.85          45.08           5.94          5.727          74.71          37.32         0.6015          121.1          78.74
    0.3376              -58.54          13.12          67.85          45.08          5.937          5.723          74.72          37.31         0.6155          121.1          78.74
    0.3858              -58.53          13.12          67.86          45.08          5.934          5.719          74.73           37.3         0.6304          121.1          78.75
    0.4341              -58.53          13.12          67.86          45.08           5.93          5.715          74.75          37.29         0.6464          121.1          78.75
    0.4823              -58.53          13.13          67.87          45.08          5.927          5.711          74.76          37.28         0.6636          121.0          78.76
    0.5305              -58.52          13.13          67.87          45.09          5.923          5.706          74.77          37.27         0.6821          121.0          78.76
    0.5788              -58.52          13.13          67.88          45.09          5.918            5.7          74.78          37.26          0.702          121.0          78.77
     0.627              -58.51          13.13          67.88          45.09          5.914          5.695           74.8          37.24         0.7236          121.0          78.78
    0.6752               -58.5          13.14          67.89          45.09          5.909          5.689          74.82          37.23         0.7469          121.0          78.79
    0.7235               -58.5          13.14          67.89           45.1          5.903          5.682          74.83          37.21         0.7722          121.0           78.8
    0.7717              -58.49          13.14           67.9           45.1          5.897          5.675          74.85           37.2         0.7997          120.9          78.81
    0.8199              -58.48          13.15          67.91           45.1          5.891          5.667          74.87          37.18         0.8296          120.9          78.82
    0.8681              -58.48          13.15          67.92          45.11          5.884          5.658           74.9          37.16         0.8623          120.9          78.83
    0.9164              -58.47          13.16          67.93          45.11          5.876          5.649          74.92          37.13         0.8981          120.8          78.84
    0.9646              -58.46          13.16          67.94          45.12          5.868          5.638          74.95          37.11         0.9374          120.8          78.86
     1.013              -58.45          13.17          67.95          45.12          5.858          5.627          74.98          37.08         0.9807          120.8          78.87
     1.061              -58.44          13.18          67.96          45.13          5.848          5.614          75.01          37.05          1.028          120.7          78.89
     1.109              -58.42          13.18          67.97          45.13          5.836            5.6          75.05          37.02          1.081          120.7          78.91
     1.158              -58.41          13.19          67.99          45.14          5.824          5.585          75.09          36.98           1.14          120.6          78.93
     1.206              -58.39           13.2           68.0          45.15           5.81          5.567          75.14          36.94          1.206          120.6          78.95
     1.254              -58.37          13.21          68.02          45.16          5.794          5.548          75.19           36.9          1.279          120.5          78.98
     1.302              -58.35          13.22          68.04          45.17          5.776          5.526          75.25          36.85          1.362          120.5          79.01
      1.35              -58.33          13.24          68.07          45.18          5.756          5.502          75.31          36.79          1.456          120.4          79.04
     1.399               -58.3          13.25          68.09          45.19          5.733          5.474          75.39          36.72          1.562          120.3          79.08
     1.447              -58.27          13.27          68.12          45.21          5.707          5.442          75.47          36.65          1.683          120.2          79.12
     1.495              -58.24          13.29          68.16          45.23          5.676          5.405          75.57          36.56          1.822          120.1          79.17
     1.543               -58.2          13.31           68.2          45.25          5.642          5.362          75.68          36.46          1.983          119.9          79.23
     1.592              -58.15          13.34          68.25          45.27          5.602          5.313          75.81          36.35          2.169          119.8          79.29
      1.64               -58.1          13.37           68.3           45.3          5.554          5.256          75.96          36.21          2.387          119.6          79.37
     1.688              -58.04          13.41          68.37          45.33          5.499          5.188          76.14          36.05          2.645          119.4          79.46
     1.736              -57.96          13.45          68.45          45.36          5.433          5.107          76.36          35.87           2.95          119.1          79.57
     1.785              -57.87           13.5          68.54          45.41          5.354           5.01          76.61          35.64          3.317          118.8           79.7
     1.833              -57.76          13.57          68.65          45.46          5.258          4.893          76.92          35.36           3.76          118.5          79.86
     1.881              -57.63          13.64          68.79          45.53          5.141           4.75           77.3          35.03          4.302          118.0          80.05
     1.929              -57.46          13.74          68.96          45.61          4.996          4.574          77.77          34.62          4.971          117.5          80.29
     1.977              -57.26          13.86          69.17          45.72          4.816          4.354          78.35           34.1          5.804          116.8          80.59
     2.026               -57.0          14.01          69.44          45.85           4.59          4.076          79.09          33.45          6.855          115.9          80.96
     2.074              -56.67          14.19          69.77          46.01          4.301          3.724          80.02          32.63           8.19          114.8          81.43
     2.122              -56.24          14.44          70.21          46.22          3.932          3.273          81.22          31.57          9.898          113.4          82.04
      2.17               -55.7          14.75          70.76          46.49          3.459          2.694          82.75          30.21          12.09          111.6          82.82
     2.219              -55.01          15.15          71.47          46.84          2.854          1.955          84.71          28.48          14.89          109.2          83.82
     2.267              -54.14          15.65          72.36          47.27          2.093          1.025          87.18          26.31          18.41          106.3          85.07
     2.315              -53.08          16.26          73.45           47.8          1.166        -0.1083          90.18          23.65          22.71          102.8           86.6
     2.363              -51.85          16.96          74.71          48.41        0.09137         -1.422          93.66          20.58          27.68          98.63          88.37
     2.412              -50.52          17.73          76.08          49.08         -1.072         -2.844          97.43          17.25          33.07          94.16          90.28
      2.46              -49.19          18.49          77.44          49.74         -2.236         -4.266          101.2          13.92          38.46           89.7           92.2
     2.508              -47.96           19.2           78.7          50.35          -3.31         -5.579          104.7          10.84          43.43          85.57          93.97
     2.556               -46.9          19.81          79.79          50.88         -4.237         -6.712          107.7          8.189          47.72          82.01          95.49
